BodoniModa-6ptItalic.ufo
<glyph name="zero" format="2">
  <advance width="1239"/>
  <unicode hex="0030"/>
  <outline>
    <contour>
      <point x="544" y="-20" type="curve" smooth="yes"/>
      <point x="926" y="-20"/>
      <point x="1286" y="494"/>
      <point x="1286" y="1072" type="curve" smooth="yes"/>
      <point x="1286" y="1310"/>
      <point x="1140" y="1520"/>
      <point x="884" y="1520" type="curve" smooth="yes"/>
      <point x="502" y="1520"/>
      <point x="143" y="1006"/>
      <point x="143" y="428" type="curve" smooth="yes"/>
      <point x="143" y="190"/>
      <point x="288" y="-20"/>
    </contour>
    <contour>
      <point x="544" y="47" type="curve" smooth="yes"/>
      <point x="370" y="47"/>
      <point x="338" y="196"/>
      <point x="338" y="368" type="curve" smooth="yes"/>
      <point x="338" y="750"/>
      <point x="562" y="1453"/>
      <point x="884" y="1453" type="curve" smooth="yes"/>
      <point x="1058" y="1453"/>
      <point x="1090" y="1304"/>
      <point x="1090" y="1132" type="curve" smooth="yes"/>
      <point x="1090" y="750"/>
      <point x="866" y="47"/>
    </contour>
  </outline>
</glyph>
<glyph name="nine" format="2">
  <advance width="1119"/>
  <unicode hex="0039"/>
  <outline>
    <contour>
      <point x="140" y="-20" type="line"/>
      <point x="706" y="-20"/>
      <point x="1170" y="635"/>
      <point x="1170" y="1061" type="curve" smooth="yes"/>
      <point x="1170" y="1381"/>
      <point x="1005" y="1520"/>
      <point x="782" y="1520" type="curve" smooth="yes"/>
      <point x="480" y="1520"/>
      <point x="190" y="1200"/>
      <point x="190" y="900" type="curve" smooth="yes"/>
      <point x="190" y="621"/>
      <point x="346" y="520"/>
      <point x="508" y="520" type="curve" smooth="yes"/>
      <point x="850" y="520"/>
      <point x="1032" y="926"/>
      <point x="1032" y="1160" type="curve"/>
      <point x="970" y="1160" type="line"/>
      <point x="970" y="939"/>
      <point x="798" y="611"/>
      <point x="552" y="611" type="curve" smooth="yes"/>
      <point x="448" y="611"/>
      <point x="390" y="692"/>
      <point x="390" y="900" type="curve" smooth="yes"/>
      <point x="390" y="1148"/>
      <point x="558" y="1447"/>
      <point x="776" y="1447" type="curve" smooth="yes"/>
      <point x="899" y="1447"/>
      <point x="970" y="1348"/>
      <point x="970" y="1160" type="curve"/>
      <point x="959" y="980" type="line"/>
      <point x="959" y="636"/>
      <point x="608" y="47"/>
      <point x="140" y="47" type="curve"/>
    </contour>
  </outline>
</glyph>
<glyph name="equal" format="2">
  <advance width="1119"/>
  <unicode hex="003D"/>
  <outline>
    <contour>
      <point x="204.333" y="885" type="line"/>
      <point x="1084.331" y="885" type="line"/>
      <point x="1084.331" y="957" type="line"/>
      <point x="204.333" y="957" type="line"/>
    </contour>
    <contour>
      <point x="204.333" y="584" type="line"/>
      <point x="1084.331" y="584" type="line"/>
      <point x="1084.331" y="656" type="line"/>
      <point x="204.333" y="656" type="line"/>
    </contour>
  </outline>
</glyph>
<glyph name="A" format="2">
  <advance width="1449"/>
  <unicode hex="0041"/>
  <anchor x="566" y="0" name="bottom"/>
  <anchor x="1099" y="0" name="ogonek"/>
  <anchor x="934" y="1500" name="top"/>
  <outline>
    <contour>
      <point x="23" y="0" type="line"/>
      <point x="107" y="0" type="line"/>
      <point x="832" y="1268" type="line"/>
      <point x="960" y="0" type="line"/>
      <point x="1170" y="0" type="line"/>
      <point x="980" y="1529" type="line"/>
      <point x="906" y="1529" type="line"/>
    </contour>
    <contour>
      <point x="-90" y="0" type="line"/>
      <point x="350" y="0" type="line"/>
      <point x="350" y="73" type="line"/>
      <point x="-90" y="73" type="line"/>
    </contour>
    <contour>
      <point x="730" y="0" type="line"/>
      <point x="1311" y="0" type="line"/>
      <point x="1311" y="73" type="line"/>
      <point x="730" y="73" type="line"/>
    </contour>
    <contour>
      <point x="351" y="453" type="line"/>
      <point x="1029" y="453" type="line"/>
      <point x="1029" y="526" type="line"/>
      <point x="351" y="526" type="line"/>
    </contour>
  </outline>
</glyph>
<glyph name="E" format="2">
  <advance width="1180"/>
  <unicode hex="0045"/>
  <anchor x="516" y="0" name="bottom"/>
  <anchor x="796" y="0" name="ogonek"/>
  <anchor x="834" y="1500" name="top"/>
  <outline>
    <contour>
      <point x="80" y="0" type="line"/>
      <point x="270" y="0" type="line"/>
      <point x="618" y="1500" type="line"/>
      <point x="428" y="1500" type="line"/>
    </contour>
    <contour>
      <point x="-90" y="0" type="line"/>
      <point x="1004" y="0" type="line"/>
      <point x="1107" y="450" type="line"/>
      <point x="1034" y="450" type="line"/>
      <point x="975" y="196"/>
      <point x="873" y="73"/>
      <point x="600" y="73" type="curve" smooth="yes"/>
      <point x="-90" y="73" type="line"/>
    </contour>
    <contour>
      <point x="700" y="557" type="curve"/>
      <point x="773" y="557" type="line"/>
      <point x="871" y="986" type="line"/>
      <point x="798" y="986" type="line"/>
      <point x="769" y="852"/>
      <point x="679" y="812"/>
      <point x="566" y="812" type="curve" smooth="yes"/>
      <point x="424" y="812" type="line"/>
      <point x="424" y="739" type="line"/>
      <point x="566" y="739" type="line" smooth="yes"/>
      <point x="679" y="739"/>
      <point x="729" y="691"/>
    </contour>
    <contour>
      <point x="1162" y="1090" type="curve"/>
      <point x="1235" y="1090" type="line"/>
      <point x="1331" y="1500" type="line"/>
      <point x="248" y="1500" type="line"/>
      <point x="248" y="1427" type="line"/>
      <point x="948" y="1427" type="line" smooth="yes"/>
      <point x="1182" y="1427"/>
      <point x="1212" y="1304"/>
    </contour>
  </outline>
</glyph>
<glyph name="S" format="2">
  <advance width="1111"/>
  <unicode hex="0053"/>
  <anchor x="448" y="0" name="bottom"/>
  <anchor x="445" y="0" name="ogonek"/>
  <anchor x="726" y="1500" name="top"/>
  <outline>
    <contour>
      <point x="466" y="-29" type="curve" smooth="yes"/>
      <point x="763" y="-29"/>
      <point x="1006" y="160"/>
      <point x="1006" y="439" type="curve" smooth="yes"/>
      <point x="1006" y="979"/>
      <point x="386" y="800"/>
      <point x="386" y="1170" type="curve" smooth="yes"/>
      <point x="386" y="1328"/>
      <point x="568" y="1441"/>
      <point x="730" y="1441" type="curve" smooth="yes"/>
      <point x="938" y="1441"/>
      <point x="1052" y="1327"/>
      <point x="1052" y="1109" type="curve"/>
      <point x="1125" y="1109" type="line"/>
      <point x="1125" y="1371"/>
      <point x="966" y="1520"/>
      <point x="710" y="1520" type="curve" smooth="yes"/>
      <point x="513" y="1520"/>
      <point x="236" y="1370"/>
      <point x="236" y="1070" type="curve" smooth="yes"/>
      <point x="236" y="631"/>
      <point x="846" y="770"/>
      <point x="846" y="360" type="curve" smooth="yes"/>
      <point x="846" y="162"/>
      <point x="657" y="47"/>
      <point x="445" y="47" type="curve" smooth="yes"/>
      <point x="187" y="47"/>
      <point x="96" y="193"/>
      <point x="96" y="391" type="curve"/>
      <point x="23" y="391" type="line"/>
      <point x="31" y="151"/>
      <point x="154" y="-29"/>
    </contour>
    <contour>
      <point x="-73" y="-20" type="line"/>
      <point x="-10" y="-20" type="line"/>
      <point x="130" y="148" type="line"/>
      <point x="117" y="189"/>
      <point x="105" y="224"/>
      <point x="92" y="262" type="curve"/>
      <point x="96" y="391" type="line"/>
      <point x="23" y="391" type="line"/>
    </contour>
    <contour>
      <point x="1052" y="1109" type="line"/>
      <point x="1125" y="1109" type="line"/>
      <point x="1215" y="1520" type="line"/>
      <point x="1152" y="1520" type="line"/>
      <point x="1021" y="1370" type="line"/>
      <point x="1039" y="1325"/>
      <point x="1059" y="1288"/>
      <point x="1074" y="1232" type="curve"/>
    </contour>
  </outline>
</glyph>
<glyph name="backslash" format="2">
  <advance width="1039"/>
  <unicode hex="005C"/>
  <outline>
    <contour>
      <point x="740" y="-300" type="line"/>
      <point x="820" y="-300" type="line"/>
      <point x="439" y="1561" type="line"/>
      <point x="359" y="1561" type="line"/>
    </contour>
  </outline>
</glyph>
<glyph name="h" format="2">
  <advance width="1126"/>
  <unicode hex="0068"/>
  <anchor x="493" y="0" name="bottom"/>
  <anchor x="121" y="0" name="cedilla"/>
  <anchor x="811" y="1420" name="top"/>
  <outline>
    <contour>
      <point x="40" y="0" type="line"/>
      <point x="205" y="0" type="line"/>
      <point x="605" y="1500" type="line"/>
      <point x="275" y="1500" type="line"/>
      <point x="275" y="1427" type="line"/>
      <point x="422" y="1427" type="line"/>
    </contour>
    <contour>
      <point x="765" y="-20" type="curve" smooth="yes"/>
      <point x="912" y="-20"/>
      <point x="990" y="76"/>
      <point x="1076" y="306" type="curve"/>
      <point x="1005" y="330" type="line"/>
      <point x="929" y="148"/>
      <point x="876" y="71"/>
      <point x="812" y="71" type="curve" smooth="yes"/>
      <point x="787" y="71"/>
      <point x="774" y="89"/>
      <point x="774" y="112" type="curve" smooth="yes"/>
      <point x="774" y="122"/>
      <point x="776.034" y="135.702"/>
      <point x="779" y="146" type="curve" smooth="yes"/>
      <point x="921" y="639" type="line" smooth="yes"/>
      <point x="967.538" y="800.573"/>
      <point x="929" y="939"/>
      <point x="756" y="939" type="curve" smooth="yes"/>
      <point x="539" y="939"/>
      <point x="307" y="571"/>
      <point x="231" y="266" type="curve"/>
      <point x="275" y="266" type="line"/>
      <point x="358" y="573"/>
      <point x="593" y="847"/>
      <point x="709" y="847" type="curve" smooth="yes"/>
      <point x="801" y="847"/>
      <point x="796.472" y="771.904"/>
      <point x="751" y="616" type="curve" smooth="yes"/>
      <point x="625" y="184" type="line" smooth="yes"/>
      <point x="615.429" y="151.185"/>
      <point x="609" y="123"/>
      <point x="609" y="102" type="curve" smooth="yes"/>
      <point x="609" y="26"/>
      <point x="671" y="-20"/>
    </contour>
  </outline>
</glyph>
<glyph name="r" format="2">
  <advance width="778"/>
  <unicode hex="0072"/>
  <anchor x="134" y="0" name="bottom"/>
  <anchor x="134" y="0" name="cedilla"/>
  <anchor x="511" y="920" name="top"/>
  <outline>
    <contour>
      <point x="50" y="0" type="line"/>
      <point x="208" y="0" type="line"/>
      <point x="428" y="920" type="line"/>
      <point x="110" y="920" type="line"/>
      <point x="110" y="847" type="line"/>
      <point x="260" y="847" type="line"/>
    </contour>
    <contour>
      <point x="230" y="266" type="curve"/>
      <point x="271" y="266" type="line"/>
      <point x="329" y="502"/>
      <point x="504" y="869"/>
      <point x="666" y="869" type="curve" smooth="yes"/>
      <point x="691" y="869"/>
      <point x="702" y="853"/>
      <point x="702" y="833" type="curve"/>
      <point x="776" y="832" type="line"/>
      <point x="776" y="882"/>
      <point x="745" y="905"/>
      <point x="688" y="905" type="curve" smooth="yes"/>
      <point x="631" y="905"/>
      <point x="594" y="860"/>
      <point x="594" y="807" type="curve" smooth="yes"/>
      <point x="594" y="757"/>
      <point x="635" y="730"/>
      <point x="685" y="730" type="curve" smooth="yes"/>
      <point x="741" y="730"/>
      <point x="778" y="774"/>
      <point x="778" y="832" type="curve" smooth="yes"/>
      <point x="778" y="896"/>
      <point x="734" y="939"/>
      <point x="663" y="939" type="curve" smooth="yes"/>
      <point x="476" y="939"/>
      <point x="291" y="566"/>
    </contour>
  </outline>
</glyph>
<glyph name="copyright" format="2">
  <advance width="1739"/>
  <unicode hex="00A9"/>
  <anchor x="845.6" y="300" name="_top"/>
  <anchor x="845.6" y="300" name="ogonek"/>
  <anchor x="1043.6" y="1200" name="top"/>
  <outline>
    <contour>
      <point x="840" y="-20" type="curve" smooth="yes"/>
      <point x="1306" y="-20"/>
      <point x="1750" y="425"/>
      <point x="1750" y="891" type="curve" smooth="yes"/>
      <point x="1750" y="1278"/>
      <point x="1467" y="1520"/>
      <point x="1080" y="1520" type="curve" smooth="yes"/>
      <point x="614" y="1520"/>
      <point x="170" y="1075"/>
      <point x="170" y="609" type="curve" smooth="yes"/>
      <point x="170" y="222"/>
      <point x="453" y="-20"/>
    </contour>
    <contour>
      <point x="1112" y="300" type="line"/>
      <point x="1149.8" y="300" type="line"/>
      <point x="1216.4" y="546" type="line"/>
      <point x="1172" y="546" type="line"/>
      <point x="1154" y="471.6" type="line"/>
      <point x="1140.2" y="446.4"/>
      <point x="1110.2" y="414"/>
      <point x="1088" y="384.6" type="curve"/>
    </contour>
    <contour>
      <point x="836" y="288" type="curve" smooth="yes"/>
      <point x="1007.6" y="288"/>
      <point x="1148.6" y="398.4"/>
      <point x="1196.6" y="546" type="curve"/>
      <point x="1172" y="546" type="line"/>
      <point x="1112" y="423.6"/>
      <point x="1009.4" y="336.6"/>
      <point x="848.6" y="336.6" type="curve" smooth="yes"/>
      <point x="723.8" y="336.6"/>
      <point x="662" y="412.2"/>
      <point x="662" y="534.6" type="curve" smooth="yes"/>
      <point x="662" y="813"/>
      <point x="807.2" y="1163.4"/>
      <point x="1064" y="1163.4" type="curve" smooth="yes"/>
      <point x="1164.8" y="1163.4"/>
      <point x="1277.6" y="1112.4"/>
      <point x="1256" y="954" type="curve"/>
      <point x="1279.4" y="954" type="line"/>
      <point x="1301" y="1125.6"/>
      <point x="1193.6" y="1212"/>
      <point x="1052" y="1212" type="curve" smooth="yes"/>
      <point x="772.4" y="1212"/>
      <point x="529.4" y="933.6"/>
      <point x="529.4" y="606" type="curve" smooth="yes"/>
      <point x="529.4" y="410.4"/>
      <point x="651.8" y="288"/>
    </contour>
    <contour>
      <point x="840" y="53" type="curve" smooth="yes"/>
      <point x="492" y="53"/>
      <point x="243" y="261"/>
      <point x="243" y="609" type="curve" smooth="yes"/>
      <point x="243" y="1035"/>
      <point x="654" y="1447"/>
      <point x="1080" y="1447" type="curve" smooth="yes"/>
      <point x="1426" y="1447"/>
      <point x="1677" y="1231"/>
      <point x="1677" y="891" type="curve" smooth="yes"/>
      <point x="1677" y="465"/>
      <point x="1266" y="53"/>
    </contour>
    <contour>
      <point x="1256" y="954" type="line"/>
      <point x="1299.8" y="954" type="line"/>
      <point x="1357.4" y="1200" type="line"/>
      <point x="1319.6" y="1200" type="line"/>
      <point x="1244" y="1110" type="line"/>
      <point x="1258.4" y="1072.2"/>
      <point x="1262.6" y="1053.6"/>
      <point x="1270.4" y="1028.4" type="curve"/>
    </contour>
  </outline>
</glyph>
<glyph name="ordfeminine" format="2">
  <advance width="705"/>
  <unicode hex="00AA"/>
  <anchor x="701.6" y="964" name="bottom"/>
  <anchor x="938.6" y="964" name="ogonek"/>
  <anchor x="827.6" y="1516" name="top"/>
  <outline>
    <contour>
      <point x="645.8" y="952" type="curve" smooth="yes"/>
      <point x="791" y="952"/>
      <point x="916.4" y="1184.2"/>
      <point x="916.4" y="1355.8" type="curve" smooth="yes"/>
      <point x="916.4" y="1454.2"/>
      <point x="877.4" y="1528"/>
      <point x="786.2" y="1528" type="curve" smooth="yes"/>
      <point x="656.6" y="1528"/>
      <point x="494" y="1330.6"/>
      <point x="494" y="1147" type="curve" smooth="yes"/>
      <point x="494" y="1030"/>
      <point x="544.4" y="952"/>
    </contour>
    <contour>
      <point x="660.8" y="1010.2" type="curve" smooth="yes"/>
      <point x="611.6" y="1010.2"/>
      <point x="585.2" y="1043.2"/>
      <point x="585.2" y="1099" type="curve" smooth="yes"/>
      <point x="585.2" y="1255"/>
      <point x="697.4" y="1472.2"/>
      <point x="801.2" y="1472.2" type="curve" smooth="yes"/>
      <point x="850.4" y="1472.2"/>
      <point x="881.6" y="1434.4"/>
      <point x="881.6" y="1352.8" type="curve" smooth="yes"/>
      <point x="881.6" y="1192"/>
      <point x="764" y="1010.2"/>
    </contour>
    <contour>
      <point x="906.8" y="952" type="curve" smooth="yes"/>
      <point x="986.6" y="952"/>
      <point x="1034.6" y="1009.6"/>
      <point x="1086.2" y="1147.6" type="curve"/>
      <point x="1043.6" y="1162" type="line"/>
      <point x="997.4" y="1052.8"/>
      <point x="966.2" y="1006.6"/>
      <point x="929.6" y="1006.6" type="curve" smooth="yes"/>
      <point x="911.6" y="1006.6"/>
      <point x="905" y="1018"/>
      <point x="905" y="1031.8" type="curve" smooth="yes"/>
      <point x="905" y="1037.2"/>
      <point x="905.6" y="1044.4"/>
      <point x="907.4" y="1051" type="curve" smooth="yes"/>
      <point x="1031" y="1516" type="line"/>
      <point x="929.6" y="1516" type="line"/>
      <point x="902" y="1400.8" type="line"/>
      <point x="882.8" y="1279" type="line"/>
      <point x="848.6" y="1181.8" type="line"/>
      <point x="827.6" y="1066" type="line" smooth="yes"/>
      <point x="825.8" y="1057.6"/>
      <point x="825.2" y="1046.8"/>
      <point x="825.2" y="1033.6" type="curve" smooth="yes"/>
      <point x="825.2" y="985.6"/>
      <point x="850.4" y="952"/>
    </contour>
  </outline>
</glyph>
<glyph name="micro" format="2">
  <advance width="1151"/>
  <unicode hex="00B5"/>
  <anchor x="386" y="0" name="bottom"/>
  <anchor x="722" y="0" name="ogonek"/>
  <anchor x="506" y="920" name="top"/>
  <outline>
    <contour>
      <point x="1010" y="330" type="line"/>
      <point x="934" y="148"/>
      <point x="885" y="72"/>
      <point x="817" y="72" type="curve" smooth="yes"/>
      <point x="792" y="72"/>
      <point x="780" y="89"/>
      <point x="780" y="110" type="curve" smooth="yes"/>
      <point x="780" y="120"/>
      <point x="781" y="134"/>
      <point x="784" y="146" type="curve" smooth="yes"/>
      <point x="997" y="920" type="line"/>
      <point x="827" y="920" type="line"/>
      <point x="748" y="620" type="line" smooth="yes"/>
      <point x="662" y="327"/>
      <point x="415" y="73"/>
      <point x="303" y="73" type="curve" smooth="yes"/>
      <point x="211" y="73"/>
      <point x="210" y="150"/>
      <point x="255" y="305" type="curve" smooth="yes"/>
      <point x="435" y="920" type="line"/>
      <point x="124" y="920" type="line"/>
      <point x="124" y="847" type="line"/>
      <point x="248" y="847" type="line"/>
      <point x="-68" y="-242" type="line" smooth="yes"/>
      <point x="-117" y="-410"/>
      <point x="2" y="-520"/>
      <point x="143" y="-520" type="curve" smooth="yes"/>
      <point x="259" y="-520"/>
      <point x="310" y="-458"/>
      <point x="310" y="-380" type="curve" smooth="yes"/>
      <point x="310" y="-304"/>
      <point x="253" y="-246"/>
      <point x="187" y="-246" type="curve" smooth="yes"/>
      <point x="121" y="-246"/>
      <point x="64" y="-306"/>
      <point x="64" y="-372" type="curve" smooth="yes"/>
      <point x="64" y="-395"/>
      <point x="68" y="-420"/>
      <point x="76" y="-442" type="curve"/>
      <point x="9" y="-416"/>
      <point x="-27" y="-348"/>
      <point x="4" y="-242" type="curve" smooth="yes"/>
      <point x="91" y="54" type="line"/>
      <point x="119" y="8"/>
      <point x="171" y="-20"/>
      <point x="258" y="-20" type="curve" smooth="yes"/>
      <point x="401" y="-20"/>
      <point x="554" y="127"/>
      <point x="667" y="312" type="curve"/>
      <point x="629" y="170" type="line" smooth="yes"/>
      <point x="623" y="149"/>
      <point x="620" y="121"/>
      <point x="620" y="105" type="curve" smooth="yes"/>
      <point x="620" y="45"/>
      <point x="666" y="-20"/>
      <point x="770" y="-20" type="curve" smooth="yes"/>
      <point x="917" y="-20"/>
      <point x="995" y="76"/>
      <point x="1081" y="306" type="curve"/>
    </contour>
  </outline>
</glyph>
<glyph name="onequarter" format="2">
  <advance width="1281"/>
  <unicode hex="00BC"/>
  <outline>
    <contour>
      <point x="-34" y="-200" type="line"/>
      <point x="34" y="-200" type="line"/>
      <point x="1271" y="1300" type="line"/>
      <point x="1203" y="1300" type="line"/>
    </contour>
    <contour>
      <point x="398" y="1612" type="line"/>
      <point x="398" y="1568" type="line"/>
      <point x="530" y="1568" type="line"/>
      <point x="347" y="756" type="line"/>
      <point x="213" y="756" type="line"/>
      <point x="213" y="712" type="line"/>
      <point x="590" y="712" type="line"/>
      <point x="590" y="756" type="line"/>
      <point x="460" y="756" type="line"/>
      <point x="654" y="1612" type="line"/>
    </contour>
    <contour>
      <point x="1033" y="694" type="line"/>
      <point x="484" y="30" type="line"/>
      <point x="896" y="30" type="line"/>
      <point x="855" y="-162" type="line"/>
      <point x="744" y="-162" type="line"/>
      <point x="744" y="-206" type="line"/>
      <point x="1062" y="-206" type="line"/>
      <point x="1062" y="-162" type="line"/>
      <point x="969" y="-162" type="line"/>
      <point x="1010" y="30" type="line"/>
      <point x="1152" y="30" type="line"/>
      <point x="1152" y="74" type="line"/>
      <point x="1020" y="74" type="line"/>
      <point x="1152" y="694" type="line"/>
    </contour>
    <contour>
      <point x="1018" y="609" type="line"/>
      <point x="905" y="74" type="line"/>
      <point x="577" y="74" type="line"/>
    </contour>
  </outline>
</glyph>
<glyph name="Oslash" format="2">
  <advance width="1429"/>
  <unicode hex="00D8"/>
  <outline>
    <contour>
      <point x="119" y="-200" type="line"/>
      <point x="214" y="-200" type="line"/>
      <point x="1420" y="1661" type="line"/>
      <point x="1326" y="1661" type="line"/>
    </contour>
    <component base="O"/>
  </outline>
</glyph>
<glyph name="eth" format="2">
  <advance width="1119"/>
  <unicode hex="00F0"/>
  <outline>
    <contour>
      <point x="473" y="-20" type="curve" smooth="yes"/>
      <point x="815" y="-20"/>
      <point x="1113" y="380"/>
      <point x="1113" y="800" type="curve" smooth="yes"/>
      <point x="1113" y="1187"/>
      <point x="916" y="1520"/>
      <point x="471" y="1520" type="curve"/>
      <point x="471" y="1453" type="line"/>
      <point x="879" y="1453"/>
      <point x="914" y="1065"/>
      <point x="914" y="721" type="curve"/>
      <point x="889" y="660" type="line"/>
      <point x="889" y="431"/>
      <point x="674" y="53"/>
      <point x="466" y="53" type="curve" smooth="yes"/>
      <point x="322" y="53"/>
      <point x="279" y="152"/>
      <point x="279" y="300" type="curve" smooth="yes"/>
      <point x="279" y="648"/>
      <point x="484" y="889"/>
      <point x="702" y="889" type="curve" smooth="yes"/>
      <point x="828" y="889"/>
      <point x="889" y="801"/>
      <point x="889" y="660" type="curve"/>
      <point x="937" y="580" type="line"/>
      <point x="937" y="814"/>
      <point x="920" y="980"/>
      <point x="658" y="980" type="curve" smooth="yes"/>
      <point x="416" y="980"/>
      <point x="80" y="760"/>
      <point x="80" y="340" type="curve" smooth="yes"/>
      <point x="80" y="80"/>
      <point x="231" y="-20"/>
    </contour>
    <contour>
      <point x="420" y="1188" type="line"/>
      <point x="1260" y="1188" type="line"/>
      <point x="1260" y="1260" type="line"/>
      <point x="420" y="1260" type="line"/>
    </contour>
  </outline>
</glyph>
<glyph name="gravecomb" format="2">
  <unicode hex="0300"/>
  <anchor x="882" y="1500" name="_top"/>
  <outline>
    <contour>
      <point x="932" y="1670" type="line"/>
      <point x="977" y="1719" type="line"/>
      <point x="765" y="1926" type="line" smooth="yes"/>
      <point x="723" y="1967"/>
      <point x="672" y="1948"/>
      <point x="653" y="1915" type="curve" smooth="yes"/>
      <point x="634" y="1882"/>
      <point x="648" y="1836"/>
      <point x="680" y="1817" type="curve" smooth="yes"/>
    </contour>
  </outline>
</glyph>
<glyph name="acutecomb" format="2">
  <unicode hex="0301"/>
  <anchor x="738" y="1500" name="_top"/>
  <outline>
    <contour>
      <point x="688" y="1670" type="line"/>
      <point x="940" y="1817" type="line" smooth="yes"/>
      <point x="972" y="1836"/>
      <point x="986" y="1882"/>
      <point x="967" y="1915" type="curve" smooth="yes"/>
      <point x="948" y="1948"/>
      <point x="897" y="1967"/>
      <point x="855" y="1926" type="curve" smooth="yes"/>
      <point x="643" y="1719" type="line"/>
    </contour>
  </outline>
</glyph>
<glyph name="tildecomb" format="2">
  <unicode hex="0303"/>
  <anchor x="713" y="1500" name="_top"/>
  <outline>
    <contour>
      <point x="955" y="1680" type="curve" smooth="yes"/>
      <point x="1053" y="1680"/>
      <point x="1168" y="1745"/>
      <point x="1208" y="1934" type="curve"/>
      <point x="1135" y="1934" type="line"/>
      <point x="1105" y="1850"/>
      <point x="1066" y="1796"/>
      <point x="1000" y="1796" type="curve" smooth="yes"/>
      <point x="908" y="1796"/>
      <point x="848" y="1954"/>
      <point x="694" y="1954" type="curve" smooth="yes"/>
      <point x="596" y="1954"/>
      <point x="459" y="1870"/>
      <point x="419" y="1700" type="curve"/>
      <point x="493" y="1700" type="line"/>
      <point x="528" y="1790"/>
      <point x="562" y="1838"/>
      <point x="628" y="1838" type="curve" smooth="yes"/>
      <point x="733" y="1838"/>
      <point x="787" y="1680"/>
    </contour>
  </outline>
</glyph>
<glyph name="ringcomb" format="2">
  <unicode hex="030A"/>
  <anchor x="773" y="1500" name="_top"/>
  <outline>
    <contour>
      <point x="823" y="1680" type="curve" smooth="yes"/>
      <point x="925" y="1680"/>
      <point x="1003" y="1757"/>
      <point x="1003" y="1859" type="curve" smooth="yes"/>
      <point x="1003" y="1961"/>
      <point x="925" y="2040"/>
      <point x="823" y="2040" type="curve" smooth="yes"/>
      <point x="721" y="2040"/>
      <point x="644" y="1961"/>
      <point x="644" y="1859" type="curve" smooth="yes"/>
      <point x="644" y="1757"/>
      <point x="721" y="1680"/>
    </contour>
    <contour>
      <point x="823" y="1754" type="curve" smooth="yes"/>
      <point x="768" y="1754"/>
      <point x="722" y="1790"/>
      <point x="722" y="1859" type="curve" smooth="yes"/>
      <point x="722" y="1928"/>
      <point x="768" y="1967"/>
      <point x="823" y="1967" type="curve" smooth="yes"/>
      <point x="878" y="1967"/>
      <point x="925" y="1928"/>
      <point x="925" y="1859" type="curve" smooth="yes"/>
      <point x="925" y="1790"/>
      <point x="878" y="1754"/>
    </contour>
  </outline>
</glyph>
<glyph name="cedillacomb" format="2">
  <unicode hex="0327"/>
  <anchor x="358" y="0" name="_bottom"/>
  <outline>
    <contour>
      <point x="175" y="-509" type="line"/>
      <point x="417" y="-509"/>
      <point x="513" y="-410"/>
      <point x="513" y="-310" type="curve" smooth="yes"/>
      <point x="513" y="-199"/>
      <point x="441" y="-154"/>
      <point x="296" y="-148" type="curve"/>
      <point x="416" y="12" type="line"/>
      <point x="326" y="12" type="line"/>
      <point x="147" y="-228" type="line"/>
      <point x="277" y="-228"/>
      <point x="371" y="-254"/>
      <point x="371" y="-336" type="curve" smooth="yes"/>
      <point x="371" y="-395"/>
      <point x="293" y="-437"/>
      <point x="175" y="-437" type="curve"/>
    </contour>
  </outline>
</glyph>
<glyph name="quotedblleft" format="2">
  <advance width="819"/>
  <unicode hex="201C"/>
  <outline>
    <contour>
      <point x="794" y="1032" type="curve" smooth="yes"/>
      <point x="870" y="1032"/>
      <point x="928" y="1090"/>
      <point x="928" y="1156" type="curve" smooth="yes"/>
      <point x="928" y="1217"/>
      <point x="889" y="1268"/>
      <point x="803" y="1268" type="curve" smooth="yes"/>
      <point x="745" y="1268"/>
      <point x="662" y="1236"/>
      <point x="662" y="1186" type="curve"/>
      <point x="735" y="1186" type="line"/>
      <point x="735" y="1326"/>
      <point x="890" y="1486"/>
      <point x="1022" y="1486" type="curve"/>
      <point x="1022" y="1560" type="line"/>
      <point x="842" y="1560"/>
      <point x="660" y="1366"/>
      <point x="660" y="1186" type="curve" smooth="yes"/>
      <point x="660" y="1081"/>
      <point x="716" y="1032"/>
    </contour>
    <contour>
      <point x="405" y="1032" type="curve" smooth="yes"/>
      <point x="481" y="1032"/>
      <point x="539" y="1090"/>
      <point x="539" y="1156" type="curve" smooth="yes"/>
      <point x="539" y="1217"/>
      <point x="500" y="1268"/>
      <point x="414" y="1268" type="curve" smooth="yes"/>
      <point x="356" y="1268"/>
      <point x="273" y="1236"/>
      <point x="273" y="1186" type="curve"/>
      <point x="346" y="1186" type="line"/>
      <point x="346" y="1326"/>
      <point x="501" y="1486"/>
      <point x="633" y="1486" type="curve"/>
      <point x="633" y="1560" type="line"/>
      <point x="453" y="1560"/>
      <point x="271" y="1366"/>
      <point x="271" y="1186" type="curve" smooth="yes"/>
      <point x="271" y="1081"/>
      <point x="327" y="1032"/>
    </contour>
  </outline>
</glyph>
<glyph name="quotedblright" format="2">
  <advance width="819"/>
  <unicode hex="201D"/>
  <outline>
    <contour>
      <point x="627" y="1012" type="line"/>
      <point x="807" y="1012"/>
      <point x="989" y="1206"/>
      <point x="989" y="1386" type="curve" smooth="yes"/>
      <point x="989" y="1491"/>
      <point x="933" y="1540"/>
      <point x="855" y="1540" type="curve" smooth="yes"/>
      <point x="779" y="1540"/>
      <point x="721" y="1482"/>
      <point x="721" y="1416" type="curve" smooth="yes"/>
      <point x="721" y="1355"/>
      <point x="760" y="1304"/>
      <point x="846" y="1304" type="curve" smooth="yes"/>
      <point x="904" y="1304"/>
      <point x="987" y="1336"/>
      <point x="987" y="1386" type="curve"/>
      <point x="914" y="1386" type="line"/>
      <point x="914" y="1246"/>
      <point x="759" y="1086"/>
      <point x="627" y="1086" type="curve"/>
    </contour>
    <contour>
      <point x="238" y="1012" type="line"/>
      <point x="418" y="1012"/>
      <point x="600" y="1206"/>
      <point x="600" y="1386" type="curve" smooth="yes"/>
      <point x="600" y="1491"/>
      <point x="544" y="1540"/>
      <point x="466" y="1540" type="curve" smooth="yes"/>
      <point x="390" y="1540"/>
      <point x="332" y="1482"/>
      <point x="332" y="1416" type="curve" smooth="yes"/>
      <point x="332" y="1355"/>
      <point x="371" y="1304"/>
      <point x="457" y="1304" type="curve" smooth="yes"/>
      <point x="515" y="1304"/>
      <point x="598" y="1336"/>
      <point x="598" y="1386" type="curve"/>
      <point x="525" y="1386" type="line"/>
      <point x="525" y="1246"/>
      <point x="370" y="1086"/>
      <point x="238" y="1086" type="curve"/>
    </contour>
  </outline>
</glyph>
<glyph name="quotedblbase" format="2">
  <advance width="819"/>
  <unicode hex="201E"/>
  <outline>
    <contour>
      <point x="315" y="-312" type="line"/>
      <point x="495" y="-312"/>
      <point x="677" y="-118"/>
      <point x="677" y="62" type="curve" smooth="yes"/>
      <point x="677" y="167"/>
      <point x="621" y="216"/>
      <point x="543" y="216" type="curve" smooth="yes"/>
      <point x="467" y="216"/>
      <point x="409" y="158"/>
      <point x="409" y="92" type="curve" smooth="yes"/>
      <point x="409" y="31"/>
      <point x="448" y="-20"/>
      <point x="534" y="-20" type="curve" smooth="yes"/>
      <point x="592" y="-20"/>
      <point x="675" y="12"/>
      <point x="675" y="62" type="curve"/>
      <point x="602" y="62" type="line"/>
      <point x="602" y="-78"/>
      <point x="447" y="-238"/>
      <point x="315" y="-238" type="curve"/>
    </contour>
    <contour>
      <point x="-74" y="-312" type="line"/>
      <point x="106" y="-312"/>
      <point x="288" y="-118"/>
      <point x="288" y="62" type="curve" smooth="yes"/>
      <point x="288" y="167"/>
      <point x="232" y="216"/>
      <point x="154" y="216" type="curve" smooth="yes"/>
      <point x="78" y="216"/>
      <point x="20" y="158"/>
      <point x="20" y="92" type="curve" smooth="yes"/>
      <point x="20" y="31"/>
      <point x="59" y="-20"/>
      <point x="145" y="-20" type="curve" smooth="yes"/>
      <point x="203" y="-20"/>
      <point x="286" y="12"/>
      <point x="286" y="62" type="curve"/>
      <point x="213" y="62" type="line"/>
      <point x="213" y="-78"/>
      <point x="58" y="-238"/>
      <point x="-74" y="-238" type="curve"/>
    </contour>
  </outline>
</glyph>
<glyph name="euro" format="2">
  <advance width="1419"/>
  <unicode hex="20AC"/>
  <outline>
    <contour>
      <point x="786" y="-20" type="curve" smooth="yes"/>
      <point x="1028" y="-20"/>
      <point x="1235" y="162"/>
      <point x="1307" y="355" type="curve"/>
      <point x="1225" y="355" type="line"/>
      <point x="1151" y="194"/>
      <point x="987" y="59"/>
      <point x="811" y="59" type="curve" smooth="yes"/>
      <point x="593" y="59"/>
      <point x="538" y="261"/>
      <point x="538" y="490" type="curve" smooth="yes"/>
      <point x="538" y="978"/>
      <point x="800" y="1445"/>
      <point x="1178" y="1445" type="curve" smooth="yes"/>
      <point x="1331" y="1445"/>
      <point x="1396" y="1355"/>
      <point x="1406" y="1330" type="curve"/>
      <point x="1404" y="1330"/>
      <point x="1402" y="1330"/>
      <point x="1396" y="1330" type="curve" smooth="yes"/>
      <point x="1337" y="1330"/>
      <point x="1282" y="1291"/>
      <point x="1282" y="1221" type="curve" smooth="yes"/>
      <point x="1282" y="1141"/>
      <point x="1346" y="1107"/>
      <point x="1396" y="1107" type="curve" smooth="yes"/>
      <point x="1457" y="1107"/>
      <point x="1510" y="1150"/>
      <point x="1510" y="1232" type="curve" smooth="yes"/>
      <point x="1510" y="1336"/>
      <point x="1402" y="1520"/>
      <point x="1158" y="1520" type="curve" smooth="yes"/>
      <point x="717" y="1520"/>
      <point x="311" y="1070"/>
      <point x="311" y="550" type="curve" smooth="yes"/>
      <point x="311" y="150"/>
      <point x="544" y="-20"/>
    </contour>
    <contour>
      <point x="143" y="744" type="line"/>
      <point x="1023" y="744" type="line"/>
      <point x="1023" y="816" type="line"/>
      <point x="143" y="816" type="line"/>
    </contour>
    <contour>
      <point x="143" y="443" type="line"/>
      <point x="1023" y="443" type="line"/>
      <point x="1023" y="515" type="line"/>
      <point x="143" y="515" type="line"/>
    </contour>
  </outline>
</glyph>
<glyph name="trademark" format="2">
  <advance width="1233"/>
  <unicode hex="2122"/>
  <outline>
    <contour>
      <point x="1013" y="968" type="line"/>
      <point x="1043" y="968" type="line"/>
      <point x="1328" y="1488" type="line"/>
      <point x="1225" y="1001" type="line"/>
      <point x="1168" y="1001" type="line"/>
      <point x="1168" y="975" type="line"/>
      <point x="1345" y="975" type="line"/>
      <point x="1345" y="1001" type="line"/>
      <point x="1293" y="1001" type="line"/>
      <point x="1399" y="1489" type="line"/>
      <point x="1446" y="1489" type="line"/>
      <point x="1446" y="1515" type="line"/>
      <point x="1314" y="1515" type="line"/>
      <point x="1069" y="1069" type="line"/>
      <point x="997" y="1515" type="line"/>
      <point x="860" y="1515" type="line"/>
      <point x="860" y="1489" type="line"/>
      <point x="910" y="1489" type="line"/>
      <point x="805" y="1001" type="line"/>
      <point x="752" y="1001" type="line"/>
      <point x="752" y="975" type="line"/>
      <point x="881" y="975" type="line"/>
      <point x="881" y="1001" type="line"/>
      <point x="833" y="1001" type="line"/>
      <point x="934" y="1477" type="line"/>
    </contour>
    <contour>
      <point x="350" y="975" type="line"/>
      <point x="577" y="975" type="line"/>
      <point x="577" y="1001" type="line"/>
      <point x="496" y="1001" type="line"/>
      <point x="610" y="1489" type="line"/>
      <point x="684" y="1489" type="line" smooth="yes"/>
      <point x="768" y="1489"/>
      <point x="765" y="1444"/>
      <point x="744" y="1353" type="curve"/>
      <point x="770" y="1353" type="line"/>
      <point x="808" y="1515" type="line"/>
      <point x="355" y="1515" type="line"/>
      <point x="318" y="1353" type="line"/>
      <point x="344" y="1353" type="line"/>
      <point x="366" y="1444"/>
      <point x="387" y="1489"/>
      <point x="472" y="1489" type="curve" smooth="yes"/>
      <point x="541" y="1489" type="line"/>
      <point x="428" y="1001" type="line"/>
      <point x="350" y="1001" type="line"/>
    </contour>
  </outline>
</glyph>
<glyph name="partialdiff" format="2">
  <advance width="1119"/>
  <unicode hex="2202"/>
  <outline>
    <contour>
      <point x="316" y="-20" type="curve" smooth="yes"/>
      <point x="618" y="-20"/>
      <point x="885" y="330"/>
      <point x="982" y="750" type="curve" smooth="yes"/>
      <point x="1094" y="1236"/>
      <point x="995" y="1520"/>
      <point x="710" y="1520" type="curve"/>
      <point x="674" y="1453" type="line"/>
      <point x="932" y="1453"/>
      <point x="848" y="1084"/>
      <point x="806" y="900" type="curve"/>
      <point x="748" y="601" type="line"/>
      <point x="686" y="333"/>
      <point x="545" y="53"/>
      <point x="327" y="53" type="curve" smooth="yes"/>
      <point x="109" y="53"/>
      <point x="112" y="271"/>
      <point x="165" y="500" type="curve" smooth="yes"/>
      <point x="227" y="768"/>
      <point x="358" y="889"/>
      <point x="536" y="889" type="curve" smooth="yes"/>
      <point x="702" y="889"/>
      <point x="799" y="822"/>
      <point x="748" y="601" type="curve"/>
      <point x="810" y="601" type="line"/>
      <point x="864" y="835"/>
      <point x="805" y="980"/>
      <point x="543" y="980" type="curve" smooth="yes"/>
      <point x="341" y="980"/>
      <point x="41" y="840"/>
      <point x="-37" y="500" type="curve" smooth="yes"/>
      <point x="-106" y="200"/>
      <point x="14" y="-20"/>
    </contour>
    <contour>
      <point x="430" y="1206" type="curve" smooth="yes"/>
      <point x="485" y="1206"/>
      <point x="553" y="1240"/>
      <point x="571" y="1320" type="curve" smooth="yes"/>
      <point x="587" y="1388"/>
      <point x="538" y="1426"/>
      <point x="481" y="1426" type="curve" smooth="yes"/>
      <point x="428" y="1426"/>
      <point x="365" y="1384"/>
      <point x="349" y="1316" type="curve"/>
      <point x="439" y="1316" type="line"/>
      <point x="464" y="1423"/>
      <point x="600" y="1453"/>
      <point x="674" y="1453" type="curve"/>
      <point x="710" y="1520" type="line"/>
      <point x="557" y="1521"/>
      <point x="376" y="1440"/>
      <point x="347" y="1316" type="curve" smooth="yes"/>
      <point x="330" y="1244"/>
      <point x="369" y="1206"/>
    </contour>
  </outline>
</glyph>
<glyph name="uniF8E8" format="2">
  <advance width="1279"/>
  <unicode hex="F8E8"/>
  <anchor x="787.36" y="857.6" name="bottom"/>
  <anchor x="628.96" y="857.6" name="cedilla"/>
  <anchor x="837.76" y="1397.6" name="top"/>
  <outline>
    <contour>
      <point x="742" y="668" type="curve" smooth="yes"/>
      <point x="1021.6" y="668"/>
      <point x="1288" y="935"/>
      <point x="1288" y="1214.6" type="curve" smooth="yes"/>
      <point x="1288" y="1446.8"/>
      <point x="1118.2" y="1592"/>
      <point x="886" y="1592" type="curve" smooth="yes"/>
      <point x="606.4" y="1592"/>
      <point x="340" y="1325"/>
      <point x="340" y="1045.4" type="curve" smooth="yes"/>
      <point x="340" y="813.2"/>
      <point x="509.8" y="668"/>
    </contour>
    <contour>
      <point x="518.8" y="857.6" type="line"/>
      <point x="737.8" y="857.6" type="line"/>
      <point x="737.8" y="884" type="line"/>
      <point x="518.8" y="884" type="line"/>
    </contour>
    <contour>
      <point x="590.8" y="857.6" type="line"/>
      <point x="659.8" y="857.6" type="line"/>
      <point x="785.2" y="1397.6" type="line"/>
      <point x="717.4" y="1397.6" type="line"/>
    </contour>
    <contour>
      <point x="950.8" y="854" type="curve" smooth="yes"/>
      <point x="976.6" y="854"/>
      <point x="989.8" y="856.4"/>
      <point x="1015.6" y="866" type="curve"/>
      <point x="1007.8" y="892.4" type="line"/>
      <point x="998.2" y="887.6"/>
      <point x="987.4" y="883.4"/>
      <point x="972.4" y="883.4" type="curve" smooth="yes"/>
      <point x="883.6" y="883.4"/>
      <point x="1046.8" y="1134.8"/>
      <point x="799.6" y="1134.8" type="curve" smooth="yes"/>
      <point x="702.4" y="1134.8" type="line"/>
      <point x="702.4" y="1121.6" type="line"/>
      <point x="785.2" y="1121.6" type="line" smooth="yes"/>
      <point x="962.2" y="1121.6"/>
      <point x="782.8" y="854"/>
    </contour>
    <contour>
      <point x="742" y="711.8" type="curve" smooth="yes"/>
      <point x="533.2" y="711.8"/>
      <point x="383.8" y="836.6"/>
      <point x="383.8" y="1045.4" type="curve" smooth="yes"/>
      <point x="383.8" y="1301"/>
      <point x="630.4" y="1548.2"/>
      <point x="886" y="1548.2" type="curve" smooth="yes"/>
      <point x="1093.6" y="1548.2"/>
      <point x="1244.2" y="1418.6"/>
      <point x="1244.2" y="1214.6" type="curve" smooth="yes"/>
      <point x="1244.2" y="959"/>
      <point x="997.6" y="711.8"/>
    </contour>
    <contour>
      <point x="702.4" y="1132.4" type="line"/>
      <point x="807.4" y="1132.4" type="line" smooth="yes"/>
      <point x="952" y="1132.4"/>
      <point x="1033.6" y="1189.4"/>
      <point x="1033.6" y="1289.6" type="curve" smooth="yes"/>
      <point x="1033.6" y="1369.4"/>
      <point x="973" y="1397.6"/>
      <point x="878.8" y="1397.6" type="curve" smooth="yes"/>
      <point x="637.6" y="1397.6" type="line"/>
      <point x="637.6" y="1371.2" type="line"/>
      <point x="878.8" y="1371.2" type="line" smooth="yes"/>
      <point x="947.8" y="1371.2"/>
      <point x="954.4" y="1332.2"/>
      <point x="954.4" y="1297.4" type="curve" smooth="yes"/>
      <point x="954.4" y="1226"/>
      <point x="904.6" y="1148"/>
      <point x="807.4" y="1148" type="curve" smooth="yes"/>
      <point x="702.4" y="1148" type="line"/>
    </contour>
  </outline>
</glyph>
<glyph name="uniF8E9" format="2">
  <advance width="1159"/>
  <unicode hex="F8E9"/>
  <anchor x="685.36" y="860" name="_top"/>
  <anchor x="685.36" y="860" name="ogonek"/>
  <anchor x="804.16" y="1400" name="top"/>
  <outline>
    <contour>
      <point x="682" y="668" type="curve" smooth="yes"/>
      <point x="961.6" y="668"/>
      <point x="1228" y="935"/>
      <point x="1228" y="1214.6" type="curve" smooth="yes"/>
      <point x="1228" y="1446.8"/>
      <point x="1058.2" y="1592"/>
      <point x="826" y="1592" type="curve" smooth="yes"/>
      <point x="546.4" y="1592"/>
      <point x="280" y="1325"/>
      <point x="280" y="1045.4" type="curve" smooth="yes"/>
      <point x="280" y="813.2"/>
      <point x="449.8" y="668"/>
    </contour>
    <contour>
      <point x="845.2" y="860" type="line"/>
      <point x="868" y="860" type="line"/>
      <point x="907.6" y="1007.6" type="line"/>
      <point x="881.2" y="1007.6" type="line"/>
      <point x="870.4" y="963.2" type="line"/>
      <point x="862" y="947.6"/>
      <point x="844" y="928.4"/>
      <point x="830.8" y="911" type="curve"/>
    </contour>
    <contour>
      <point x="679.6" y="852.8" type="curve" smooth="yes"/>
      <point x="782.8" y="852.8"/>
      <point x="867.4" y="918.8"/>
      <point x="896.2" y="1007.6" type="curve"/>
      <point x="881.2" y="1007.6" type="line"/>
      <point x="845.2" y="934.4"/>
      <point x="783.4" y="882.2"/>
      <point x="687.4" y="882.2" type="curve" smooth="yes"/>
      <point x="612.4" y="882.2"/>
      <point x="575.2" y="927.2"/>
      <point x="575.2" y="1001" type="curve" smooth="yes"/>
      <point x="575.2" y="1167.8"/>
      <point x="662.2" y="1377.8"/>
      <point x="816.4" y="1377.8" type="curve" smooth="yes"/>
      <point x="877" y="1377.8"/>
      <point x="944.8" y="1347.2"/>
      <point x="931.6" y="1252.4" type="curve"/>
      <point x="945.4" y="1252.4" type="line"/>
      <point x="958.6" y="1355.6"/>
      <point x="894.4" y="1407.2"/>
      <point x="809.2" y="1407.2" type="curve" smooth="yes"/>
      <point x="641.2" y="1407.2"/>
      <point x="495.4" y="1240.4"/>
      <point x="495.4" y="1043.6" type="curve" smooth="yes"/>
      <point x="495.4" y="926"/>
      <point x="569.2" y="852.8"/>
    </contour>
    <contour>
      <point x="682" y="711.8" type="curve" smooth="yes"/>
      <point x="473.2" y="711.8"/>
      <point x="323.8" y="836.6"/>
      <point x="323.8" y="1045.4" type="curve" smooth="yes"/>
      <point x="323.8" y="1301"/>
      <point x="570.4" y="1548.2"/>
      <point x="826" y="1548.2" type="curve" smooth="yes"/>
      <point x="1033.6" y="1548.2"/>
      <point x="1184.2" y="1418.6"/>
      <point x="1184.2" y="1214.6" type="curve" smooth="yes"/>
      <point x="1184.2" y="959"/>
      <point x="937.6" y="711.8"/>
    </contour>
    <contour>
      <point x="931.6" y="1252.4" type="line"/>
      <point x="958" y="1252.4" type="line"/>
      <point x="992.2" y="1400" type="line"/>
      <point x="970" y="1400" type="line"/>
      <point x="924.4" y="1346" type="line"/>
      <point x="932.8" y="1323.2"/>
      <point x="935.8" y="1312.4"/>
      <point x="940" y="1296.8" type="curve"/>
    </contour>
  </outline>
</glyph>
<glyph name="caroncomb.alt" format="2">
  <anchor x="436" y="920" name="_topright"/>
  <outline>
    <contour>
      <point x="490" y="992" type="line"/>
      <point x="670" y="992"/>
      <point x="852" y="1186"/>
      <point x="852" y="1366" type="curve" smooth="yes"/>
      <point x="852" y="1471"/>
      <point x="796" y="1520"/>
      <point x="718" y="1520" type="curve" smooth="yes"/>
      <point x="642" y="1520"/>
      <point x="584" y="1462"/>
      <point x="584" y="1396" type="curve" smooth="yes"/>
      <point x="584" y="1335"/>
      <point x="623" y="1284"/>
      <point x="709" y="1284" type="curve" smooth="yes"/>
      <point x="767" y="1284"/>
      <point x="850" y="1316"/>
      <point x="850" y="1366" type="curve"/>
      <point x="777" y="1366" type="line"/>
      <point x="777" y="1226"/>
      <point x="622" y="1066"/>
      <point x="490" y="1066" type="curve"/>
    </contour>
  </outline>
</glyph>
<glyph name="eth.sc" format="2">
  <advance width="1235"/>
  <outline>
    <contour>
      <point x="26.43" y="514" type="line"/>
      <point x="600.205" y="514" type="line"/>
      <point x="600.205" y="586" type="line"/>
      <point x="26.43" y="586" type="line"/>
    </contour>
    <component base="d.sc"/>
  </outline>
</glyph>
<glyph name="five.tosf" format="2">
  <advance width="1160"/>
  <outline>
    <contour>
      <point x="127" y="210.971" type="line"/>
      <point x="200" y="210.971" type="line"/>
      <point x="401" y="749.175" type="line"/>
      <point x="1060" y="749.175" type="line"/>
      <point x="1119" y="1023.982" type="line"/>
      <point x="1047" y="1023.982" type="line"/>
      <point x="1025" y="920.335" type="line"/>
      <point x="387" y="920.335" type="line"/>
    </contour>
    <contour>
      <point x="362" y="-525.018" type="curve" smooth="yes"/>
      <point x="664" y="-525.018"/>
      <point x="949" y="-257.818"/>
      <point x="949" y="27.449" type="curve" smooth="yes"/>
      <point x="949" y="274.681"/>
      <point x="796" y="386.886"/>
      <point x="544" y="386.886" type="curve" smooth="yes"/>
      <point x="362" y="386.886"/>
      <point x="248" y="318.422"/>
      <point x="176" y="210.971" type="curve"/>
      <point x="248" y="210.971" type="line"/>
      <point x="312" y="278.484"/>
      <point x="410" y="310.815"/>
      <point x="510" y="310.815" type="curve" smooth="yes"/>
      <point x="658" y="310.815"/>
      <point x="740" y="205"/>
      <point x="740" y="27.449" type="curve" smooth="yes"/>
      <point x="740" y="-190.305"/>
      <point x="600" y="-453.701"/>
      <point x="342" y="-453.701" type="curve" smooth="yes"/>
      <point x="223" y="-453.701"/>
      <point x="85" y="-374.777"/>
      <point x="85" y="-260.67" type="curve"/>
      <point x="12" y="-260.67" type="line"/>
      <point x="12" y="-308.215"/>
      <point x="63" y="-353.858"/>
      <point x="123" y="-353.858" type="curve" smooth="yes"/>
      <point x="182" y="-353.858"/>
      <point x="239" y="-315.822"/>
      <point x="239" y="-249.26" type="curve" smooth="yes"/>
      <point x="239" y="-173.188"/>
      <point x="173" y="-142.76"/>
      <point x="123" y="-142.76" type="curve" smooth="yes"/>
      <point x="62" y="-142.76"/>
      <point x="10" y="-182.697"/>
      <point x="10" y="-260.67" type="curve" smooth="yes"/>
      <point x="10" y="-398.549"/>
      <point x="158" y="-525.018"/>
    </contour>
  </outline>
</glyph>
<glyph name="four.osf" format="2">
  <advance width="1099"/>
  <outline>
    <contour>
      <point x="601" y="0" type="line"/>
      <point x="920" y="0" type="line"/>
      <point x="919.854" y="73" type="line"/>
      <point x="601" y="73" type="line"/>
    </contour>
    <contour>
      <point x="601" y="73" type="line"/>
      <point x="53" y="73" type="line"/>
      <point x="680" y="736" type="line"/>
      <point x="395" y="-500" type="line"/>
      <point x="585" y="-500" type="line"/>
      <point x="912" y="920" type="line"/>
      <point x="752" y="920" type="line"/>
      <point x="-101" y="0" type="line"/>
      <point x="601" y="0" type="line"/>
    </contour>
  </outline>
</glyph>
<glyph name="p.sc" format="2">
  <advance width="1085"/>
  <anchor x="101" y="0" name="bottom"/>
  <anchor x="540" y="1020" name="top"/>
  <outline>
    <contour>
      <point x="245" y="389" type="line"/>
      <point x="455" y="389" type="line" smooth="yes"/>
      <point x="756" y="389"/>
      <point x="930" y="494"/>
      <point x="978" y="704" type="curve" smooth="yes"/>
      <point x="1026" y="914"/>
      <point x="901" y="1020"/>
      <point x="600" y="1020" type="curve" smooth="yes"/>
      <point x="110" y="1020" type="line"/>
      <point x="94" y="947" type="line"/>
      <point x="584" y="947" type="line" smooth="yes"/>
      <point x="745" y="947"/>
      <point x="789" y="832"/>
      <point x="759" y="704" type="curve" smooth="yes"/>
      <point x="729" y="576"/>
      <point x="632" y="461"/>
      <point x="471" y="461" type="curve" smooth="yes"/>
      <point x="261" y="461" type="line"/>
    </contour>
    <contour>
      <point x="-125" y="0" type="line"/>
      <point x="326" y="0" type="line"/>
      <point x="343" y="73" type="line"/>
      <point x="-108" y="73" type="line"/>
    </contour>
    <contour>
      <point x="6" y="0" type="line"/>
      <point x="196" y="0" type="line"/>
      <point x="431" y="1020" type="line"/>
      <point x="241" y="1020" type="line"/>
    </contour>
  </outline>
</glyph>
<glyph name="seven.osf" format="2">
  <advance width="1009"/>
  <outline>
    <contour>
      <point x="258" y="-519.947" type="curve" smooth="yes"/>
      <point x="346" y="-519.947"/>
      <point x="387" y="-461.21"/>
      <point x="387" y="-391.105" type="curve" smooth="yes"/>
      <point x="387" y="-266.052"/>
      <point x="279" y="-275.526"/>
      <point x="279" y="-194.052" type="curve" smooth="yes"/>
      <point x="279" y="-108.789"/>
      <point x="411" y="75"/>
      <point x="545" y="253.107" type="curve" smooth="yes"/>
      <point x="725" y="493.739"/>
      <point x="1057" y="920.055"/>
      <point x="1057" y="920.055" type="curve"/>
      <point x="130" y="920.055" type="line"/>
      <point x="59" y="597.949" type="line"/>
      <point x="131" y="597.949" type="line"/>
      <point x="163" y="741.002" type="line"/>
      <point x="828" y="741.002" type="line"/>
      <point x="706" y="589.423"/>
      <point x="539" y="380.054"/>
      <point x="449" y="253.107" type="curve" smooth="yes"/>
      <point x="297" y="41.843"/>
      <point x="126" y="-216.789"/>
      <point x="126" y="-375.947" type="curve" smooth="yes"/>
      <point x="126" y="-468.789"/>
      <point x="190" y="-519.947"/>
    </contour>
  </outline>
</glyph>
<glyph name="thorn.sc" format="2">
  <advance width="1085"/>
  <anchor x="141" y="0" name="bottom"/>
  <anchor x="380" y="1020" name="top"/>
  <outline>
    <contour>
      <point x="200" y="194" type="line"/>
      <point x="410" y="194" type="line" smooth="yes"/>
      <point x="711" y="194"/>
      <point x="885" y="299"/>
      <point x="933" y="509" type="curve" smooth="yes"/>
      <point x="981" y="719"/>
      <point x="856" y="825"/>
      <point x="555" y="825" type="curve" smooth="yes"/>
      <point x="375" y="825" type="line"/>
      <point x="359" y="752" type="line"/>
      <point x="539" y="752" type="line" smooth="yes"/>
      <point x="700" y="752"/>
      <point x="744" y="637"/>
      <point x="714" y="509" type="curve" smooth="yes"/>
      <point x="684" y="381"/>
      <point x="587" y="266"/>
      <point x="426" y="266" type="curve" smooth="yes"/>
      <point x="216" y="266" type="line"/>
    </contour>
    <contour>
      <point x="660" y="1020" type="line"/>
      <point x="110" y="1020" type="line"/>
      <point x="94" y="947" type="line"/>
      <point x="264" y="947" type="line"/>
      <point x="63" y="73" type="line"/>
      <point x="-108" y="73" type="line"/>
      <point x="-125" y="0" type="line"/>
      <point x="425" y="0" type="line"/>
      <point x="442" y="73" type="line"/>
      <point x="252" y="73" type="line"/>
      <point x="453" y="947" type="line"/>
      <point x="644" y="947" type="line"/>
    </contour>
  </outline>
</glyph>
<glyph name="z.sc" format="2">
  <advance width="1066"/>
  <anchor x="342" y="0" name="bottom"/>
  <anchor x="547" y="1020" name="top"/>
  <outline>
    <contour>
      <point x="-110" y="0" type="line"/>
      <point x="756" y="0" type="line"/>
      <point x="832" y="330" type="line"/>
      <point x="758" y="330" type="line"/>
      <point x="716" y="146"/>
      <point x="653" y="73"/>
      <point x="450" y="73" type="curve" smooth="yes"/>
      <point x="137" y="73" type="line"/>
      <point x="969" y="947" type="line"/>
      <point x="985" y="1020" type="line"/>
      <point x="159" y="1020" type="line"/>
      <point x="93" y="730" type="line"/>
      <point x="166" y="730" type="line"/>
      <point x="199" y="874"/>
      <point x="264" y="947"/>
      <point x="467" y="947" type="curve" smooth="yes"/>
      <point x="739" y="947" type="line"/>
      <point x="-93" y="73" type="line"/>
    </contour>
  </outline>
</glyph>
